<svg width="1024" height="1024" viewBox="0 0 1024 1024" fill="none" xmlns="http://www.w3.org/2000/svg">
    <!-- Steel Blue background -->
    <rect width="1024" height="1024" fill="rgb(68, 130, 180)"/>
    
    <!-- White brain outline -->
    <path d="
        M 512 262
        C 432 262 367 327 367 407
        C 367 440 377 470 395 494
        
        <!-- Left hemisphere folds -->
        C 375 505 360 527 360 552
        C 360 587 388 615 423 615
        C 423 650 451 678 486 678
        C 486 713 514 741 549 741
        
        <!-- Right hemisphere -->
        L 657 741
        C 692 741 720 713 720 678
        C 720 643 692 615 657 615
        C 657 580 685 552 685 517
        C 685 482 657 454 622 454
        
        <!-- Top folds -->
        C 630 436 635 415 635 392
        C 635 327 582 274 517 274
        
        <!-- Connecting paths -->
        M 517 304
        C 565 304 605 344 605 392
        C 605 440 565 480 517 480
        
        <!-- Left side folds -->
        M 397 407
        C 397 382 417 362 442 362
        C 467 362 487 382 487 407
        C 487 432 467 452 442 452
        
        <!-- Right side folds -->
        M 582 407
        C 582 382 602 362 627 362
        C 652 362 672 382 672 407
        C 672 432 652 452 627 452
        
        <!-- Bottom folds -->
        M 486 510
        C 486 535 466 555 441 555
        C 416 555 396 535 396 510
        
        M 583 510
        C 583 535 563 555 538 555
        C 513 555 493 535 493 510
        "
        stroke="white"
        stroke-width="40"
        stroke-linecap="round"
        stroke-linejoin="round"
        fill="none"
    />
</svg> 